<svg width="18" height="15" viewBox="0 0 18 15" fill="none" xmlns="http://www.w3.org/2000/svg">
<path d="M16.744 8.24527C16.9315 8.05774 17.0369 7.80338 17.0369 7.53816C17.0369 7.27295 16.9315 7.01859 16.744 6.83106L11.1225 1.13885C10.935 0.951312 10.6806 0.845955 10.4154 0.845955C10.1502 0.845955 9.89581 0.951312 9.70828 1.13885C9.52074 1.32638 9.41538 1.58074 9.41538 1.84595C9.41538 2.11117 9.52074 2.36553 9.70828 2.55306L13.6398 6.48458L1.9301 6.49872C1.79809 6.49818 1.66728 6.52378 1.54521 6.57405C1.42315 6.62432 1.31224 6.69826 1.21889 6.7916C1.12555 6.88495 1.05161 6.99585 1.00134 7.11792C0.95107 7.23999 0.925469 7.3708 0.92601 7.50281C0.925469 7.63482 0.95107 7.76563 1.00134 7.8877C1.05161 8.00976 1.12555 8.12067 1.21889 8.21402C1.31224 8.30736 1.42315 8.3813 1.54521 8.43157C1.66728 8.48184 1.79809 8.50744 1.9301 8.5069L13.6539 8.5069L9.70828 12.4526C9.52074 12.6401 9.41538 12.8944 9.41538 13.1597C9.41538 13.4249 9.52074 13.6792 9.70828 13.8668C9.89581 14.0543 10.1502 14.1597 10.4154 14.1597C10.6806 14.1597 10.935 14.0543 11.1225 13.8668L16.744 8.24527Z" fill="white"/>
</svg>
