<svg width="13" height="13" viewBox="0 0 13 13" fill="none" xmlns="http://www.w3.org/2000/svg">
<path d="M13 1.05C13 0.784784 12.8946 0.530429 12.7071 0.342893C12.5196 0.155357 12.2652 0.0500002 12 0.0500002L4 0C3.73478 0 3.48043 0.105357 3.29289 0.292893C3.10536 0.48043 3 0.734784 3 1C3 1.26522 3.10536 1.51957 3.29289 1.70711C3.48043 1.89464 3.73478 2 4 2H9.56L1.29 10.29C1.19627 10.383 1.12188 10.4936 1.07111 10.6154C1.02034 10.7373 0.994202 10.868 0.994202 11C0.994202 11.132 1.02034 11.2627 1.07111 11.3846C1.12188 11.5064 1.19627 11.617 1.29 11.71C1.38296 11.8037 1.49356 11.8781 1.61542 11.9289C1.73728 11.9797 1.86799 12.0058 2 12.0058C2.13201 12.0058 2.26272 11.9797 2.38458 11.9289C2.50644 11.8781 2.61704 11.8037 2.71 11.71L11 3.42V9C11 9.26522 11.1054 9.51957 11.2929 9.70711C11.4804 9.89464 11.7348 10 12 10C12.2652 10 12.5196 9.89464 12.7071 9.70711C12.8946 9.51957 13 9.26522 13 9V1.05Z" fill="white"/>
</svg>
