<svg width="15" height="16" viewBox="0 0 15 16" fill="none" xmlns="http://www.w3.org/2000/svg">
<path d="M13.7703 9.36C13.6863 9.25874 13.5832 9.17504 13.4669 9.11369C13.3505 9.05234 13.2232 9.01454 13.0922 9.00246C12.9613 8.99039 12.8292 9.00427 12.7036 9.04331C12.578 9.08236 12.4613 9.1458 12.3603 9.23L8.00027 12.86V1C8.00027 0.734784 7.89492 0.48043 7.70738 0.292893C7.51984 0.105357 7.26549 0 7.00027 0C6.73506 0 6.4807 0.105357 6.29317 0.292893C6.10563 0.48043 6.00027 0.734784 6.00027 1V12.86L1.64027 9.23C1.53915 9.14595 1.42247 9.08265 1.29689 9.0437C1.17131 9.00474 1.03928 8.99091 0.908349 9.00298C0.777419 9.01505 0.650148 9.05279 0.533803 9.11405C0.417459 9.17531 0.314319 9.25888 0.230273 9.36C0.146227 9.46112 0.0829206 9.5778 0.0439683 9.70338C0.00501604 9.82897 -0.00881949 9.96099 0.00325213 10.0919C0.0153237 10.2229 0.053066 10.3501 0.114324 10.4665C0.175581 10.5828 0.259155 10.686 0.360273 10.77L6.36027 15.77L6.51027 15.86L6.64027 15.93C6.87195 16.0194 7.1286 16.0194 7.36027 15.93L7.49027 15.86L7.64027 15.77L13.6403 10.77C13.7415 10.6861 13.8252 10.583 13.8866 10.4666C13.9479 10.3503 13.9857 10.2229 13.9978 10.092C14.0099 9.96099 13.996 9.82892 13.957 9.70332C13.9179 9.57771 13.8545 9.46105 13.7703 9.36Z" fill="white"/>
</svg>
