<svg width="48" height="54" viewBox="0 0 48 54" fill="none" xmlns="http://www.w3.org/2000/svg">
<path d="M23.1959 3.97404C23.1774 3.44416 22.7326 3.02762 22.2039 3.0673C17.866 3.39281 13.6915 4.89203 10.1314 7.4127C6.30981 10.1185 3.36322 13.8832 1.65466 18.243C-0.053896 22.6027 -0.449778 27.367 0.515785 31.9489C1.41527 36.2172 3.45961 40.1536 6.42127 43.3398C6.78224 43.7281 7.39164 43.7247 7.76523 43.3485C8.13882 42.9723 8.13498 42.3658 7.77536 41.9762C5.07882 39.055 3.21675 35.4547 2.39452 31.553C1.5062 27.3376 1.87042 22.9545 3.44229 18.9435C5.01416 14.9326 7.72502 11.4691 11.2409 8.97968C14.4952 6.67551 18.3076 5.29908 22.271 4.9878C22.7995 4.94628 23.2144 4.50391 23.1959 3.97404Z" fill="#4747EC"/>
<path d="M24 50.04C24 50.5702 24.43 51.002 24.9598 50.9808C28.9244 50.8222 32.7932 49.6826 36.217 47.6578C39.9166 45.4699 42.9607 42.3286 45.0314 38.5621C47.102 34.7956 48.1232 30.5422 47.9882 26.2461C47.8632 22.2704 46.7523 18.3932 44.762 14.9608C44.496 14.5022 43.901 14.3705 43.4533 14.6546C43.0057 14.9386 42.875 15.5309 43.1394 15.9905C44.9464 19.1318 45.955 22.6744 46.0691 26.3065C46.1933 30.2588 45.2538 34.172 43.3489 37.6371C41.4439 41.1023 38.6433 43.9923 35.2396 46.0052C32.1119 47.8549 28.5803 48.9016 24.9598 49.0591C24.4301 49.0822 24 49.5098 24 50.04Z" fill="#4747EC"/>
<rect x="9" y="12" width="30" height="30" rx="15" fill="#4747EC"/>
<g clip-path="url(#clip0_1_734)">
<path d="M16.2068 19.0034H15.1609C15.0721 19.0034 15 19.079 15 19.1721V27.9155C15 28.0086 15.0721 28.0842 15.1609 28.0842H16.2072C16.296 28.0842 16.3681 28.0086 16.3681 27.9155V19.1721C16.3678 19.079 16.2956 19.0034 16.2068 19.0034Z" fill="white"/>
<path d="M18.0893 20.4465H19.1355C19.2243 20.4465 19.2965 20.3709 19.2965 20.2778V19.1814C19.2965 19.0883 19.2243 19.0127 19.1355 19.0127H18.0893C18.0005 19.0127 17.9283 19.0883 17.9283 19.1814V20.2782C17.9287 20.3713 18.0005 20.4465 18.0893 20.4465Z" fill="#FFB521"/>
<path opacity="0.6" d="M32.7935 32.177H31.7472C31.6584 32.177 31.5863 32.2526 31.5863 32.3457V33.4425C31.5863 33.5356 31.6584 33.6112 31.7472 33.6112H32.7935C32.8823 33.6112 32.9544 33.5356 32.9544 33.4425V32.3457C32.9544 32.2526 32.8823 32.177 32.7935 32.177Z" fill="white"/>
<path d="M25.2251 26.9576C25.2251 27.0507 25.2972 27.1263 25.386 27.1263H26.4327C26.5215 27.1263 26.5936 27.0507 26.5936 26.9576V24.0938C26.5936 22.4959 25.689 21.6128 24.4341 21.6128C23.763 21.6128 23.3978 21.8195 23.0575 22.3136V21.5686C23.0575 21.4755 22.9853 21.3999 22.8965 21.3999H21.8399C21.7511 21.3999 21.679 21.4755 21.679 21.5686V26.9576C21.679 27.0507 21.7511 27.1263 21.8399 27.1263H22.8965C22.9853 27.1263 23.0575 27.0507 23.0575 26.9576V24.304C23.0575 23.3686 23.4071 22.864 24.1463 22.864C24.8662 22.864 25.2255 23.3686 25.2255 24.304V26.9576H25.2251Z" fill="white"/>
<path d="M22.901 28.1037H21.8444C21.7556 28.1037 21.6834 28.1794 21.6834 28.2725V30.926C21.6834 31.8615 21.2228 32.3661 20.4836 32.3661C19.7637 32.3661 19.2935 31.8615 19.2935 30.926V28.1041V21.5691C19.2935 21.476 19.2213 21.4004 19.1325 21.4004H18.0866C17.9978 21.4004 17.9257 21.476 17.9257 21.5691V28.1037H17.9231V31.1358C17.9231 32.7337 18.8299 33.6168 20.0848 33.6168C20.7559 33.6168 21.3431 33.3015 21.6834 32.8074V33.6614C21.6834 33.7545 21.7556 33.8301 21.8444 33.8301H22.901C22.9898 33.8301 23.0619 33.7545 23.0619 33.6614V28.2721C23.0616 28.179 22.9898 28.1037 22.901 28.1037Z" fill="white"/>
<path d="M28.2375 28.0975C27.469 28.0975 26.8974 28.5031 26.6026 28.9569V28.2654C26.6026 28.1723 26.5304 28.0967 26.4416 28.0967H25.3898C25.301 28.0967 25.2289 28.1723 25.2289 28.2654V35.8317C25.2289 35.9247 25.301 36.0004 25.3898 36.0004H26.4416C26.5304 36.0004 26.6026 35.9247 26.6026 35.8317V32.7705C26.9063 33.2049 27.4602 33.6202 28.2375 33.6202C29.5061 33.6202 30.4976 32.5099 30.4976 30.8394C30.4976 29.169 29.5061 28.0975 28.2375 28.0975ZM27.9067 32.4323C27.2367 32.4323 26.6022 31.8723 26.6022 30.8585C26.6022 29.8447 27.2363 29.2846 27.9067 29.2846C28.5856 29.2846 29.2201 29.8253 29.2201 30.8391C29.2201 31.8532 28.5856 32.4323 27.9067 32.4323Z" fill="white"/>
<path d="M32.8391 27.1228C32.9782 27.1228 33.0515 26.9502 32.959 26.842L30.7643 24.2722L32.9464 21.6803C33.0381 21.5714 32.9641 21.4003 32.8258 21.4003H31.7403C31.6959 21.4003 31.653 21.4197 31.6226 21.4538L29.5242 23.8123V19.1687C29.5242 19.0756 29.452 19 29.3633 19H28.3122C28.2234 19 28.1512 19.0756 28.1512 19.1687V26.9545C28.1512 27.0476 28.2234 27.1232 28.3122 27.1232H29.3633C29.452 27.1232 29.5242 27.0476 29.5242 26.9545V24.7004L31.6071 27.0689C31.6374 27.1034 31.6804 27.1232 31.7255 27.1232H32.8391V27.1228Z" fill="white"/>
</g>
<path d="M27 4L21.75 7.4641L21.75 0.535898L27 4Z" fill="#4747EC"/>
<path d="M20 50L25.25 46.5359L25.25 53.4641L20 50Z" fill="#4747EC"/>
<defs>
<clipPath id="clip0_1_734">
<rect width="18" height="17" fill="white" transform="translate(15 19)"/>
</clipPath>
</defs>
</svg>
