<svg width="34" height="34" viewBox="0 0 34 34" fill="none" xmlns="http://www.w3.org/2000/svg">
<path d="M7.465 11.08C7.48032 10.9278 7.4598 10.7742 7.40511 10.6314C7.35041 10.4885 7.26304 10.3605 7.15 10.2575L4.815 7.42375V7H12.0625L17.665 19.3812L22.59 7H29.5V7.42375L27.5037 9.35C27.4192 9.41531 27.3539 9.50237 27.3149 9.60188C27.276 9.70139 27.2648 9.80962 27.2825 9.915V24.0825C27.2648 24.1879 27.276 24.2961 27.3149 24.3956C27.3539 24.4951 27.4192 24.5822 27.5037 24.6475L29.4537 26.575V27H19.6488V26.5762L21.6687 24.6012C21.8675 24.4012 21.8675 24.3425 21.8675 24.0375V12.585L16.2525 26.9525H15.495L8.9575 12.585V22.215C8.90375 22.6188 9.0375 23.0275 9.32 23.32L11.9462 26.53V26.9525H4.5V26.53L7.125 23.32C7.26389 23.1751 7.36697 22.9997 7.426 22.8078C7.48504 22.6159 7.49839 22.4129 7.465 22.215V11.08Z" fill="white"/>
</svg>
