<svg width="34" height="34" viewBox="0 0 34 34" fill="none" xmlns="http://www.w3.org/2000/svg">
<path d="M31.5534 7.17147C30.5097 7.63397 29.3884 7.94647 28.2097 8.08772C29.4259 7.35996 30.3358 6.21455 30.7697 4.86522C29.627 5.54396 28.3763 6.02171 27.0722 6.27772C26.1951 5.3413 25.0335 4.72063 23.7676 4.51206C22.5016 4.3035 21.2023 4.51871 20.0712 5.12428C18.9401 5.72986 18.0406 6.69192 17.5123 7.8611C16.9841 9.03027 16.8566 10.3412 17.1496 11.5902C14.8343 11.474 12.5692 10.8722 10.5014 9.82385C8.43367 8.77554 6.60945 7.30417 5.14715 5.50522C4.64715 6.36772 4.35965 7.36772 4.35965 8.43272C4.35909 9.39146 4.59519 10.3355 5.047 11.1811C5.4988 12.0267 6.15235 12.7478 6.94965 13.2802C6.02499 13.2508 5.12074 13.0009 4.31215 12.5515V12.6265C4.31206 13.9711 4.77719 15.2744 5.62863 16.3152C6.48007 17.356 7.66536 18.0701 8.9834 18.3365C8.12563 18.5686 7.22632 18.6028 6.3534 18.4365C6.72527 19.5935 7.44964 20.6052 8.42511 21.3301C9.40057 22.055 10.5783 22.4567 11.7934 22.479C9.73069 24.0982 7.18326 24.9766 4.5609 24.9727C4.09637 24.9728 3.63224 24.9457 3.1709 24.8915C5.83274 26.6029 8.93132 27.5112 12.0959 27.5077C22.8084 27.5077 28.6647 18.6352 28.6647 10.9402C28.6647 10.6902 28.6584 10.4377 28.6472 10.1877C29.7863 9.36394 30.7695 8.34384 31.5509 7.17522L31.5534 7.17147Z" fill="white"/>
</svg>
