<svg width="26" height="30" viewBox="0 0 26 30" fill="none" xmlns="http://www.w3.org/2000/svg">
<path d="M16.5799 5.69692C17.3372 4.93999 17.8961 4.11093 18.2567 3.20941C18.6053 2.3079 18.7796 1.49085 18.7796 0.757316C18.7796 0.709578 18.7765 0.648801 18.7705 0.577003C18.7642 0.505205 18.7615 0.445464 18.7615 0.396689C18.7495 0.360627 18.7345 0.294503 18.7165 0.19799C18.6985 0.102187 18.6835 0.0360627 18.6714 0C16.5559 0.49282 15.0536 1.38233 14.1642 2.66847C13.2627 3.96635 12.7939 5.51093 12.7578 7.3019C13.5628 7.22945 14.1878 7.12797 14.633 6.99572C15.282 6.77875 15.9308 6.34632 16.5799 5.69692Z" fill="white"/>
<path d="M22.7095 19.6336C21.8801 18.4442 21.4654 17.104 21.4654 15.6129C21.4654 14.2549 21.8557 13.0111 22.6373 11.8809C23.058 11.2682 23.7432 10.559 24.6927 9.7533C24.0677 8.98436 23.4427 8.38368 22.8176 7.95028C21.6877 7.16994 20.4076 6.77832 18.9775 6.77832C18.124 6.77832 17.0843 6.98335 15.8582 7.39171C14.6802 7.80073 13.8208 8.0044 13.2802 8.0044C12.8716 8.0044 12.0422 7.82408 10.7921 7.46351C9.52997 7.10288 8.46653 6.92257 7.60102 6.92257C5.53355 6.92257 3.82671 7.78802 2.48077 9.51925C1.1225 11.2742 0.443359 13.5216 0.443359 16.2619C0.443359 19.1705 1.32681 22.1932 3.09383 25.3308C4.88453 28.4437 6.69351 30 8.5206 30C9.13361 30 9.92661 29.7956 10.9002 29.3873C11.8739 28.9906 12.727 28.7923 13.4602 28.7923C14.2415 28.7923 15.1487 28.9846 16.1828 29.3689C17.2763 29.7536 18.1177 29.9456 18.7067 29.9456C20.2449 29.9456 21.7896 28.7679 23.3401 26.4123C24.3498 24.9101 25.0891 23.4073 25.5579 21.9051C24.4882 21.5809 23.5388 20.8236 22.7095 19.6336Z" fill="white"/>
</svg>
