<svg width="15" height="16" viewBox="0 0 15 16" fill="none" xmlns="http://www.w3.org/2000/svg">
<path d="M1.22973 6.64C1.31368 6.74126 1.41678 6.82496 1.53312 6.88631C1.64947 6.94766 1.77678 6.98546 1.90775 6.99754C2.03873 7.00961 2.1708 6.99573 2.29641 6.95669C2.42201 6.91764 2.53868 6.8542 2.63973 6.77L6.99973 3.14L6.99973 15C6.99973 15.2652 7.10508 15.5196 7.29262 15.7071C7.48016 15.8946 7.73451 16 7.99973 16C8.26494 16 8.5193 15.8946 8.70683 15.7071C8.89437 15.5196 8.99973 15.2652 8.99973 15L8.99973 3.14L13.3597 6.77C13.4608 6.85405 13.5775 6.91735 13.7031 6.9563C13.8287 6.99526 13.9607 7.00909 14.0917 6.99702C14.2226 6.98495 14.3499 6.94721 14.4662 6.88595C14.5825 6.82469 14.6857 6.74112 14.7697 6.64C14.8538 6.53888 14.9171 6.4222 14.956 6.29662C14.995 6.17103 15.0088 6.03901 14.9967 5.90808C14.9847 5.77715 14.9469 5.64987 14.8857 5.53353C14.8244 5.41719 14.7408 5.31405 14.6397 5.23L8.63973 0.23L8.48973 0.139999L8.35973 0.0699997C8.12805 -0.0193977 7.8714 -0.0193977 7.63973 0.0699997L7.50973 0.139999L7.35973 0.23L1.35973 5.23C1.25847 5.31395 1.17477 5.41705 1.11341 5.5334C1.05206 5.64974 1.01427 5.77705 1.00219 5.90803C0.990114 6.03901 1.004 6.17108 1.04304 6.29668C1.08209 6.42229 1.14552 6.53895 1.22973 6.64Z" fill="white"/>
</svg>
