<svg width="13" height="10" viewBox="0 0 13 10" fill="none" xmlns="http://www.w3.org/2000/svg">
<path d="M11.4524 0.466176C11.5292 0.387838 11.6208 0.325604 11.722 0.283119C11.8231 0.240633 11.9317 0.21875 12.0414 0.21875C12.1511 0.21875 12.2596 0.240633 12.3608 0.283119C12.4619 0.325604 12.5535 0.387838 12.6303 0.466176C12.9521 0.791301 12.9566 1.31668 12.6416 1.64743L5.98943 9.51118C5.9139 9.59411 5.82225 9.66077 5.72008 9.70706C5.61791 9.75336 5.50736 9.77833 5.39521 9.78043C5.28306 9.78254 5.17166 9.76174 5.06782 9.71931C4.96398 9.67689 4.86989 9.61372 4.7913 9.53368L0.743553 5.43193C0.587445 5.27272 0.5 5.05865 0.5 4.83568C0.5 4.61271 0.587445 4.39863 0.743553 4.23943C0.82033 4.16109 0.911964 4.09885 1.01309 4.05637C1.11422 4.01388 1.2228 3.992 1.33249 3.992C1.44218 3.992 1.55077 4.01388 1.65189 4.05637C1.75302 4.09885 1.84465 4.16109 1.92143 4.23943L5.35493 7.71905L11.4299 0.490926C11.4369 0.482231 11.4444 0.473966 11.4524 0.466176Z" fill="white"/>
</svg>
