<svg width="34" height="34" viewBox="0 0 34 34" fill="none" xmlns="http://www.w3.org/2000/svg">
<path d="M16.9999 13.0946C14.8495 13.0946 13.0946 14.8495 13.0946 16.9999C13.0946 19.1503 14.8495 20.9052 16.9999 20.9052C19.1503 20.9052 20.9052 19.1503 20.9052 16.9999C20.9052 14.8495 19.1503 13.0946 16.9999 13.0946ZM28.7128 16.9999C28.7128 15.3827 28.7274 13.7802 28.6366 12.1659C28.5458 10.2909 28.1181 8.62685 26.747 7.25575C25.373 5.88173 23.7118 5.45693 21.8368 5.36611C20.2196 5.27529 18.6171 5.28993 17.0028 5.28993C15.3856 5.28993 13.7831 5.27529 12.1688 5.36611C10.2938 5.45693 8.62978 5.88466 7.25868 7.25575C5.88466 8.62978 5.45986 10.2909 5.36904 12.1659C5.27822 13.7831 5.29286 15.3856 5.29286 16.9999C5.29286 18.6142 5.27822 20.2196 5.36904 21.8339C5.45986 23.7089 5.88759 25.3729 7.25868 26.744C8.63271 28.1181 10.2938 28.5429 12.1688 28.6337C13.786 28.7245 15.3886 28.7099 17.0028 28.7099C18.62 28.7099 20.2226 28.7245 21.8368 28.6337C23.7118 28.5429 25.3759 28.1151 26.747 26.744C28.121 25.37 28.5458 23.7089 28.6366 21.8339C28.7304 20.2196 28.7128 18.6171 28.7128 16.9999V16.9999ZM16.9999 23.0087C13.6747 23.0087 10.9911 20.3251 10.9911 16.9999C10.9911 13.6747 13.6747 10.9911 16.9999 10.9911C20.3251 10.9911 23.0087 13.6747 23.0087 16.9999C23.0087 20.3251 20.3251 23.0087 16.9999 23.0087ZM23.2548 12.1483C22.4784 12.1483 21.8515 11.5214 21.8515 10.745C21.8515 9.96864 22.4784 9.34169 23.2548 9.34169C24.0312 9.34169 24.6581 9.96864 24.6581 10.745C24.6583 10.9294 24.6222 11.1119 24.5518 11.2823C24.4813 11.4527 24.378 11.6075 24.2476 11.7378C24.1172 11.8682 23.9625 11.9715 23.7921 12.042C23.6217 12.1124 23.4391 12.1486 23.2548 12.1483V12.1483Z" fill="white"/>
</svg>
