<svg width="10" height="10" viewBox="0 0 10 10" fill="none" xmlns="http://www.w3.org/2000/svg">
<path d="M8.49366 9.67217C8.81909 9.99761 9.34673 9.99761 9.67217 9.67217C9.99761 9.34673 9.99761 8.8191 9.67217 8.49366L6.13664 4.95813L9.67218 1.42259C9.99762 1.09715 9.99762 0.569515 9.67218 0.244078C9.34674 -0.0813592 8.8191 -0.0813592 8.49367 0.244078L4.95813 3.77962L1.42259 0.244079C1.09715 -0.0813579 0.569515 -0.0813579 0.244078 0.244079C-0.0813592 0.569516 -0.0813592 1.09715 0.244078 1.42259L3.77962 4.95813L0.244088 8.49366C-0.0813489 8.81909 -0.0813489 9.34673 0.244088 9.67217C0.569525 9.99761 1.09716 9.99761 1.4226 9.67217L4.95813 6.13664L8.49366 9.67217Z" fill="white"/>
</svg>
